<svg xmlns="http://www.w3.org/2000/svg" xmlns:xlink="http://www.w3.org/1999/xlink" width="500" zoomAndPan="magnify" viewBox="0 0 375 374.999991" height="500" preserveAspectRatio="xMidYMid meet" version="1.0"><defs><clipPath id="5772663f5a"><path d="M 37.5 50 L 325 50 L 325 337.5 L 37.5 337.5 Z M 37.5 50 " clip-rule="nonzero"/></clipPath><clipPath id="99c7a35d6e"><path d="M 194 37.5 L 337.5 37.5 L 337.5 181 L 194 181 Z M 194 37.5 " clip-rule="nonzero"/></clipPath></defs><g clip-path="url(#5772663f5a)"><path fill="#ff1616" d="M 324.390625 194.039062 C 324.390625 273.261719 260.167969 337.484375 180.945312 337.484375 C 101.722656 337.484375 37.5 273.261719 37.5 194.039062 C 37.5 114.816406 101.722656 50.59375 180.945312 50.59375 L 180.945312 194.039062 Z M 324.390625 194.039062 " fill-opacity="1" fill-rule="nonzero"/></g><g clip-path="url(#99c7a35d6e)"><path fill="#c1ff72" d="M 337.480469 180.945312 C 337.480469 101.726562 273.257812 37.503906 194.039062 37.503906 L 194.039062 180.945312 Z M 337.480469 180.945312 " fill-opacity="1" fill-rule="nonzero"/></g><path fill="#c1ff72" d="M 332.804688 172.410156 C 332.804688 172.410156 333.195312 174.878906 326.890625 174.878906 C 321.4375 174.878906 332.945312 170.785156 331.691406 161.726562 C 330.550781 153.449219 318.246094 174.878906 311.292969 174.878906 C 305.191406 174.878906 330.753906 154.898438 329.304688 148.777344 C 328.03125 143.375 304.347656 174.878906 298.523438 174.878906 C 293.550781 174.878906 328.644531 145.304688 326.273438 137.988281 C 324.121094 131.34375 290.648438 174.878906 283.707031 174.878906 C 277.617188 174.878906 324.917969 133.355469 321.800781 126.089844 C 318.949219 119.441406 273.601562 174.878906 268.597656 174.878906 C 264.445312 174.878906 320.207031 122.164062 317.480469 116.914062 C 315.058594 112.246094 262.3125 174.878906 256.203125 174.878906 C 250.945312 174.878906 315.683594 113.308594 312.617188 108.308594 C 309.886719 103.855469 249.183594 174.878906 243.230469 174.878906 C 238.128906 174.878906 311.066406 105.523438 306.90625 99.746094 C 303.113281 94.480469 234.710938 174.878906 228.25 174.878906 C 222.644531 174.878906 304.074219 95.746094 300.492188 91.484375 C 297.308594 87.699219 220.480469 174.878906 216.046875 174.878906 C 212.460938 174.878906 298.683594 89.234375 295.234375 85.574219 C 292.210938 82.367188 210.824219 174.878906 204.714844 174.878906 C 199.457031 174.878906 292.871094 82.972656 288.734375 79.125 C 285.046875 75.695312 200.003906 171.816406 200.003906 166.796875 C 200.003906 162.675781 286.46875 76.9375 282.589844 73.730469 C 279.191406 70.921875 200.003906 160.375 200.003906 155.382812 C 200.003906 151.292969 280.417969 71.859375 276.433594 68.925781 C 272.953125 66.363281 200.003906 149.433594 200.003906 143.851562 C 200.003906 139.171875 274.851562 67.566406 268.691406 63.644531 C 263.0625 60.058594 200.003906 134.445312 200.003906 128.601562 C 200.003906 123.660156 265.746094 61.601562 259.453125 58.246094 C 253.722656 55.191406 200.003906 119.6875 200.003906 113.445312 C 200.003906 108.105469 255.222656 55.953125 250.449219 53.835938 C 246.269531 51.980469 200.003906 107.292969 200.003906 100.816406 C 200.003906 95.242188 247.453125 52.382812 241.042969 50.082031 C 235.265625 48.011719 200.003906 92.082031 200.003906 86.71875 C 200.003906 82.257812 237.496094 48.71875 231.683594 47.089844 C 226.542969 45.652344 200.003906 80.023438 200.003906 74.300781 C 200.003906 69.484375 228.230469 46.019531 221.910156 44.738281 C 216.304688 43.597656 200.003906 68.230469 200.003906 60.519531 C 200.003906 53.710938 216.242188 43.566406 210.054688 42.855469 C 204.636719 42.234375 200.003906 52.738281 200.003906 47.882812 C 200.003906 43.929688 202.667969 42.1875 202.667969 42.1875 C 202.667969 42.1875 198.300781 42.125 198.300781 49.683594 C 198.300781 56.335938 204.472656 44.207031 208.355469 44.652344 C 211.46875 45.011719 198.300781 51.90625 198.300781 62.316406 C 198.300781 71.828125 216.035156 45.6875 220.210938 46.535156 C 223.675781 47.238281 198.300781 67.679688 198.300781 76.101562 C 198.300781 83.621094 226.191406 47.828125 229.984375 48.890625 C 233.105469 49.761719 198.300781 80.453125 198.300781 88.515625 C 198.300781 95.679688 234.839844 50.265625 239.34375 51.878906 C 243.210938 53.265625 198.300781 93.4375 198.300781 102.613281 C 198.300781 110.890625 245.769531 54.3125 248.75 55.632812 C 251.125 56.6875 198.300781 106.300781 198.300781 115.242188 C 198.300781 123.285156 253.15625 57.589844 257.753906 60.042969 C 261.78125 62.191406 198.300781 121.855469 198.300781 130.398438 C 198.300781 138.042969 262.425781 62.53125 266.992188 65.441406 C 271.027344 68.011719 198.300781 137.367188 198.300781 145.652344 C 198.300781 153.035156 272.257812 68.902344 274.734375 70.722656 C 276.710938 72.179688 198.300781 149.488281 198.300781 157.179688 C 198.300781 163.972656 278.445312 73.507812 280.890625 75.527344 C 282.859375 77.15625 198.300781 160.875 198.300781 168.59375 C 198.300781 175.414062 284.253906 78.335938 287.03125 80.921875 C 289.359375 83.085938 194.351562 176.675781 203.015625 176.675781 C 210.828125 176.675781 291.359375 85.066406 293.535156 87.375 C 295.285156 89.230469 207.359375 176.675781 214.34375 176.675781 C 220.480469 176.675781 296.410156 90.453125 298.789062 93.28125 C 300.769531 95.636719 217.539062 176.675781 226.550781 176.675781 C 234.714844 176.675781 302.148438 97.296875 305.207031 101.542969 C 307.894531 105.277344 233.023438 176.675781 241.53125 176.675781 C 249.1875 176.675781 308.859375 106.746094 310.917969 110.109375 C 312.644531 112.921875 245.839844 176.675781 254.503906 176.675781 C 262.316406 176.675781 313.960938 115.207031 315.78125 118.714844 C 317.300781 121.636719 259.339844 176.675781 266.898438 176.675781 C 273.605469 176.675781 317.78125 122.476562 320.101562 127.886719 C 322.15625 132.675781 272.511719 176.675781 282.007812 176.675781 C 290.648438 176.675781 322.855469 134.484375 324.574219 139.785156 C 326.074219 144.417969 288.445312 176.675781 296.824219 176.675781 C 304.347656 176.675781 326.671875 146.613281 327.605469 150.574219 C 328.371094 153.816406 300.089844 176.675781 309.59375 176.675781 C 318.25 176.675781 329.066406 156.816406 329.992188 163.523438 C 330.808594 169.441406 316.332031 176.675781 325.191406 176.675781 C 333.195312 176.675781 332.804688 172.410156 332.804688 172.410156 Z M 332.804688 172.410156 " fill-opacity="1" fill-rule="nonzero"/></svg>